<svg width="28" height="28" viewBox="0 0 28 28" fill="none" xmlns="http://www.w3.org/2000/svg">
<path d="M26.504 8.70006V12.9951C25.8819 12.8698 25.2386 12.9119 24.638 13.1171C24.0886 13.3049 23.595 13.6271 23.202 14.0545C22.809 14.4819 22.5292 15.0009 22.388 15.5641C22.2402 16.1426 22.2417 16.7491 22.3923 17.3269C22.5429 17.9047 22.8378 18.4348 23.2492 18.8675C23.6606 19.3002 24.1752 19.6214 24.7446 19.8009C25.3141 19.9805 25.9198 20.0125 26.505 19.8941V24.1891C26.505 24.9359 26.2084 25.6522 25.6803 26.1803C25.1521 26.7084 24.4359 27.0051 23.689 27.0051H19.394V27.0061C19.5197 26.384 19.4779 25.7397 19.273 25.1391C19.0851 24.5895 18.7627 24.0958 18.3351 23.7028C17.9076 23.3098 17.3884 23.03 16.825 22.8891C16.2465 22.7412 15.64 22.7427 15.0622 22.8933C14.4844 23.044 13.9543 23.3388 13.5216 23.7502C13.0889 24.1617 12.7677 24.6762 12.5882 25.2457C12.4086 25.8151 12.3766 26.4208 12.495 27.0061L8.20104 27.0051C7.45445 27.0051 6.73845 26.7085 6.21053 26.1806C5.68262 25.6527 5.38604 24.9366 5.38604 24.1901V19.8951C4.80075 20.0137 4.19491 19.9818 3.62531 19.8024C3.05571 19.6229 2.54101 19.3018 2.12946 18.869C1.7179 18.4363 1.42296 17.9061 1.2723 17.3282C1.12163 16.7503 1.12016 16.1437 1.26804 15.5651C1.40917 15.0019 1.68898 14.4829 2.08197 14.0555C2.47496 13.6281 2.96864 13.3059 3.51804 13.1181C4.11891 12.9127 4.76355 12.8706 5.38604 12.9961H5.38404V8.70106C5.38404 7.95421 5.68072 7.23795 6.20882 6.70985C6.73693 6.18175 7.45319 5.88506 8.20004 5.88506H12.495C12.3764 5.29977 12.4083 4.69393 12.5877 4.12433C12.7672 3.55474 13.0883 3.04004 13.5211 2.62848C13.9538 2.21692 14.484 1.92199 15.0619 1.77132C15.6398 1.62065 16.2464 1.61919 16.825 1.76706C17.3883 1.90865 17.9073 2.18871 18.3348 2.58183C18.7623 2.97494 19.0848 3.46863 19.273 4.01806C19.478 4.61806 19.52 5.26306 19.394 5.88506H23.689C24.4359 5.88506 25.1521 6.18175 25.6803 6.70985C26.2084 7.23795 26.505 7.95421 26.505 8.70106" stroke="#003DA6" stroke-width="1.5" stroke-linecap="round" stroke-linejoin="round"/>
</svg>
