<svg width="34" height="38" viewBox="0 0 34 38" fill="none" xmlns="http://www.w3.org/2000/svg">
<path d="M33 21C33 29.836 25.836 37 17 37C8.164 37 1 29.836 1 21V8.824C1 7.798 1.776 6.922 2.8 6.842C7.57012 6.46764 12.0973 4.58477 15.726 1.466C16.0826 1.16573 16.5338 1.00108 17 1.00108C17.4662 1.00108 17.9174 1.16573 18.274 1.466C21.9022 4.58554 26.4297 6.46853 31.2 6.842C32.224 6.922 33 7.798 33 8.824V21Z" stroke="#003DA6" stroke-width="1.5" stroke-linecap="round" stroke-linejoin="round"/>
<path d="M23.6373 15.682L15.3413 23.978L10.3633 19" stroke="#003DA6" stroke-width="1.5" stroke-linecap="round" stroke-linejoin="round"/>
</svg>
