<svg width="25" height="24" viewBox="0 0 25 24" fill="none" xmlns="http://www.w3.org/2000/svg">
<path d="M7.16603 1.33301H17.832C18.569 1.33301 19.166 1.93001 19.166 2.66701V10.667C19.1658 12.435 18.4632 14.1306 17.213 15.3806C15.9627 16.6307 14.2671 17.333 12.499 17.333C10.731 17.333 9.03538 16.6307 7.7851 15.3806C6.53483 14.1306 5.8323 12.435 5.83203 10.667V2.66701C5.83203 1.93001 6.42903 1.33301 7.16603 1.33301Z" stroke="#003DA6" stroke-width="1.5" stroke-linecap="round" stroke-linejoin="round"/>
<path d="M18.7301 13.04L21.2531 11.779C22.0283 11.3914 22.6802 10.7957 23.1359 10.0585C23.5916 9.32123 23.833 8.47169 23.8331 7.60501V5.82201C23.8331 5.17801 23.3101 4.65601 22.6661 4.65601H19.1661M12.4991 22.667V17.333M17.8321 22.667H7.16606M6.26906 13.04L3.74406 11.78C2.96886 11.3924 2.3169 10.7967 1.86121 10.0595C1.40553 9.32223 1.16413 8.47269 1.16406 7.60601V5.82201C1.16406 5.17801 1.68706 4.65601 2.33106 4.65601H5.83106" stroke="#003DA6" stroke-width="1.5" stroke-linecap="round" stroke-linejoin="round"/>
</svg>
