<svg width="27" height="26" viewBox="0 0 27 26" fill="none" xmlns="http://www.w3.org/2000/svg">
<path d="M13.4991 19.6701C13.7111 19.6701 13.8891 19.5121 13.9181 19.3031L14.1151 17.8271C14.2576 16.7604 14.7471 15.7703 15.5081 15.0094C16.2691 14.2486 17.2594 13.7593 18.3261 13.6171L19.8021 13.4191C19.9034 13.4053 19.9964 13.3552 20.0637 13.2782C20.1309 13.2012 20.168 13.1023 20.1681 13.0001C20.168 12.8978 20.1309 12.799 20.0637 12.7219C19.9964 12.6449 19.9034 12.5948 19.8021 12.5811L18.3261 12.3841C17.2594 12.2416 16.2693 11.7521 15.5084 10.991C14.7476 10.23 14.2583 9.23975 14.1161 8.17305L13.9181 6.69705C13.9043 6.5957 13.8542 6.50277 13.7772 6.43548C13.7002 6.36819 13.6014 6.33109 13.4991 6.33105C13.3968 6.33109 13.298 6.36819 13.2209 6.43548C13.1439 6.50277 13.0939 6.5957 13.0801 6.69705L12.8831 8.17305C12.7406 9.23971 12.2511 10.2299 11.4901 10.9907C10.729 11.7516 9.73877 12.2408 8.67208 12.3831L7.19608 12.5811C7.09472 12.5948 7.00179 12.6449 6.9345 12.7219C6.86721 12.799 6.83011 12.8978 6.83008 13.0001C6.83008 13.2121 6.98608 13.3901 7.19608 13.4191L8.67208 13.6161C9.73874 13.7585 10.7289 14.248 11.4897 15.0091C12.2506 15.7701 12.7399 16.7604 12.8821 17.8271L13.0801 19.3031C13.1081 19.5131 13.2871 19.6701 13.4991 19.6701Z" stroke="#003DA6" stroke-width="1.5" stroke-linecap="round" stroke-linejoin="round"/>
<path d="M20.5041 0.995117H6.49414C3.73272 0.995117 1.49414 3.23369 1.49414 5.99512V20.0051C1.49414 22.7665 3.73272 25.0051 6.49414 25.0051H20.5041C23.2656 25.0051 25.5041 22.7665 25.5041 20.0051V5.99512C25.5041 3.23369 23.2656 0.995117 20.5041 0.995117Z" stroke="#003DA6" stroke-width="1.5" stroke-linecap="round" stroke-linejoin="round"/>
</svg>
