<svg width="50" height="50" viewBox="0 0 50 50" fill="none" xmlns="http://www.w3.org/2000/svg">
<rect width="50" height="50" rx="25" fill="#00C206"/>
<path fill-rule="evenodd" clip-rule="evenodd" d="M28.9847 26.0439C28.5081 26.0439 27.5907 27.8248 27.0397 27.8248C26.8962 27.8188 26.7569 27.7746 26.6362 27.6967C25.6086 27.1817 24.7092 26.6499 23.8648 25.8428C23.1665 25.1816 22.3965 24.1899 21.9942 23.3277C21.9387 23.246 21.9063 23.1508 21.9007 23.0522C21.9007 22.6294 23.1691 21.8414 23.1691 21.1431C23.1691 20.9599 22.2338 18.4653 22.1031 18.1514C21.9199 17.6748 21.8289 17.5274 21.3343 17.5274C21.0947 17.5274 20.8731 17.4723 20.6553 17.4723C20.2683 17.4723 19.9762 17.6197 19.6995 17.8759C18.818 18.7023 18.3772 19.5646 18.3413 20.7767V20.9228C18.3221 22.1912 18.9461 23.4558 19.6444 24.4846C21.2203 26.8165 22.8552 28.8537 25.4792 30.0452C26.2684 30.413 28.0865 31.183 28.9668 31.183C30.0135 31.183 31.7214 30.5232 32.1417 29.4943C32.3082 29.0715 32.4543 28.559 32.4543 28.1003C32.4543 28.026 32.4543 27.9158 32.4159 27.8248C32.2878 27.6045 29.2973 26.0439 28.9847 26.0439ZM25.2588 35.7724C23.0205 35.7724 20.8001 35.0934 18.9269 33.8634L14.4848 35.2753L15.9352 30.9998C14.5044 29.0381 13.7328 26.6731 13.7314 24.245C13.7314 17.8964 18.9077 12.7202 25.2588 12.7202C31.61 12.7202 36.7875 17.8952 36.7875 24.2438C36.7875 30.5962 31.6112 35.7724 25.2588 35.7724ZM25.2588 10.4062C17.6226 10.4062 11.4213 16.6101 11.4213 24.2438C11.4213 26.7601 12.1004 29.2381 13.4021 31.3854L10.9062 38.8193L18.5604 36.3593C20.668 37.5227 23.0425 38.1166 25.4497 38.0823C27.8568 38.048 30.2134 37.3867 32.287 36.1637C34.3606 34.9406 36.0794 33.1981 37.274 31.108C38.4685 29.0179 39.0975 26.6524 39.0989 24.245C39.0989 16.6113 32.8951 10.4062 25.2588 10.4062Z" fill="white"/>
</svg>
