<svg width="38" height="39" viewBox="0 0 38 39" fill="none" xmlns="http://www.w3.org/2000/svg">
<path d="M37 10.425V33.44C37 34.5009 36.5786 35.5183 35.8284 36.2684C35.0783 37.0186 34.0609 37.44 33 37.44H5C3.93913 37.44 2.92172 37.0186 2.17157 36.2684C1.42143 35.5183 1 34.5009 1 33.44V10.425C1 9.771 1.08 9.119 1.239 8.485L2.243 4.47C2.45931 3.60464 2.95865 2.83641 3.66166 2.28741C4.36467 1.73841 5.23102 1.44014 6.123 1.44H31.877C32.769 1.44014 33.6353 1.73841 34.3383 2.28741C35.0414 2.83641 35.5407 3.60464 35.757 4.47L36.761 8.485C36.92 9.119 37 9.771 37 10.425Z" stroke="#003DA6" stroke-width="1.5" stroke-linecap="round" stroke-linejoin="round"/>
<path d="M13.9995 24.44L18.9995 29.44M18.9995 29.44L23.9995 24.44M18.9995 29.44V17.44M36.9365 9.44H1.0625" stroke="#003DA6" stroke-width="1.5" stroke-linecap="round" stroke-linejoin="round"/>
</svg>
