<svg width="37" height="39" viewBox="0 0 37 39" fill="none" xmlns="http://www.w3.org/2000/svg">
<path d="M1.99961 31.99C2.36628 31.7233 2.76594 31.4983 3.19861 31.315C3.63161 31.1317 4.09861 31.04 4.59961 31.04H6.99961V5.43999H4.59961C3.86294 5.43999 3.24544 5.69832 2.74711 6.21499C2.24878 6.73166 1.99961 7.33999 1.99961 8.03999V31.99ZM4.59961 38.84C3.48861 38.84 2.54411 38.4608 1.76611 37.7025C0.988443 36.9442 0.599609 36.0233 0.599609 34.94V8.03999C0.599609 6.92899 0.988443 5.98449 1.76611 5.20649C2.54411 4.42882 3.48861 4.03999 4.59961 4.03999H19.2996V5.43999H8.39961V31.04H23.5996V22.14H24.9996V32.44H4.59961C3.89961 32.44 3.29128 32.6787 2.77461 33.156C2.25794 33.6337 1.99961 34.2253 1.99961 34.931C1.99961 35.637 2.25794 36.2317 2.77461 36.715C3.29128 37.1983 3.89961 37.44 4.59961 37.44H29.9996V20.14H31.3996V38.84H4.59961ZM26.9996 20.14C26.9996 17.4357 27.9403 15.143 29.8216 13.262C31.7026 11.3807 33.9953 10.44 36.6996 10.44C33.9953 10.44 31.7026 9.49932 29.8216 7.61799C27.9403 5.73699 26.9996 3.44432 26.9996 0.73999C26.9996 3.44432 26.0589 5.73699 24.1776 7.61799C22.2966 9.49932 20.0039 10.44 17.2996 10.44C20.0039 10.44 22.2966 11.3807 24.1776 13.262C26.0589 15.143 26.9996 17.4357 26.9996 20.14Z" fill="#003DA6"/>
</svg>
