<svg width="24" height="24" viewBox="0 0 24 24" fill="none" xmlns="http://www.w3.org/2000/svg">
<mask id="mask0_169_1045" style="mask-type:alpha" maskUnits="userSpaceOnUse" x="0" y="0" width="24" height="24">
<rect width="24" height="24" fill="#D9D9D9"/>
</mask>
<g mask="url(#mask0_169_1045)">
<path d="M10.9991 20C10.7158 20 10.4783 19.9042 10.2866 19.7125C10.0949 19.5208 9.9991 19.2833 9.9991 19V13L4.1991 5.6C3.9491 5.26667 3.9116 4.91667 4.0866 4.55C4.2616 4.18333 4.56577 4 4.9991 4H18.9991C19.4324 4 19.7366 4.18333 19.9116 4.55C20.0866 4.91667 20.0491 5.26667 19.7991 5.6L13.9991 13V19C13.9991 19.2833 13.9033 19.5208 13.7116 19.7125C13.5199 19.9042 13.2824 20 12.9991 20H10.9991ZM11.9991 12.3L16.9491 6H7.0491L11.9991 12.3Z" fill="#003DA6"/>
</g>
</svg>
